<svg xmlns="http://www.w3.org/2000/svg" xmlns:xlink="http://www.w3.org/1999/xlink" width="128" zoomAndPan="magnify" viewBox="0 0 96 95.999999" height="128" preserveAspectRatio="xMidYMid meet" version="1.0"><defs><g/><clipPath id="4f26ca496a"><path d="M 18.742188 17.292969 L 77.242188 17.292969 L 77.242188 78.792969 L 18.742188 78.792969 Z M 18.742188 17.292969 " clip-rule="nonzero"/></clipPath><clipPath id="3c2dd45e7a"><path d="M 52.355469 45.902344 L 26.238281 45.902344 C 25.226562 45.902344 24.496094 44.933594 24.769531 43.957031 L 31.9375 18.40625 C 32.121094 17.746094 32.722656 17.292969 33.410156 17.292969 L 59.523438 17.292969 C 60.539062 17.292969 61.269531 18.257812 60.996094 19.234375 L 53.828125 44.785156 C 53.640625 45.445312 53.039062 45.902344 52.355469 45.902344 Z M 35.394531 65.1875 L 39.085938 52.03125 C 39.359375 51.054688 38.625 50.089844 37.613281 50.089844 L 24.1875 50.089844 C 23.503906 50.089844 22.902344 50.546875 22.714844 51.207031 L 19.023438 64.359375 C 18.75 65.335938 19.484375 66.304688 20.496094 66.304688 L 33.921875 66.304688 C 34.605469 66.304688 35.207031 65.847656 35.394531 65.1875 Z M 42.1875 51.207031 L 35.015625 76.757812 C 34.742188 77.730469 35.476562 78.699219 36.488281 78.699219 L 62.605469 78.699219 C 63.289062 78.699219 63.890625 78.242188 64.074219 77.582031 L 71.246094 52.03125 C 71.519531 51.054688 70.785156 50.089844 69.773438 50.089844 L 43.660156 50.089844 C 42.972656 50.089844 42.371094 50.546875 42.1875 51.207031 Z M 60.621094 30.800781 L 56.929688 43.957031 C 56.65625 44.933594 57.386719 45.902344 58.402344 45.902344 L 71.824219 45.902344 C 72.511719 45.902344 73.113281 45.445312 73.296875 44.785156 L 76.988281 31.628906 C 77.261719 30.652344 76.53125 29.6875 75.515625 29.6875 L 62.09375 29.6875 C 61.40625 29.6875 60.804688 30.144531 60.621094 30.800781 Z M 60.621094 30.800781 " clip-rule="nonzero"/></clipPath><linearGradient x1="114.296446" gradientTransform="matrix(0.122812, 0, 0, 0.122812, 18.966465, 17.291826)" y1="-47.63396" x2="358.59937" gradientUnits="userSpaceOnUse" y2="547.579248" id="b120092d93"><stop stop-opacity="1" stop-color="rgb(0%, 98.799133%, 65.899658%)" offset="0"/><stop stop-opacity="1" stop-color="rgb(0%, 98.799133%, 65.899658%)" offset="0.0625"/><stop stop-opacity="1" stop-color="rgb(0.0213623%, 98.722839%, 65.951538%)" offset="0.09375"/><stop stop-opacity="1" stop-color="rgb(0.100708%, 98.439026%, 66.146851%)" offset="0.0976562"/><stop stop-opacity="1" stop-color="rgb(0.158691%, 98.233032%, 66.288757%)" offset="0.101563"/><stop stop-opacity="1" stop-color="rgb(0.216675%, 98.027039%, 66.430664%)" offset="0.105469"/><stop stop-opacity="1" stop-color="rgb(0.274658%, 97.821045%, 66.574097%)" offset="0.109375"/><stop stop-opacity="1" stop-color="rgb(0.331116%, 97.613525%, 66.716003%)" offset="0.113281"/><stop stop-opacity="1" stop-color="rgb(0.389099%, 97.407532%, 66.85791%)" offset="0.117188"/><stop stop-opacity="1" stop-color="rgb(0.447083%, 97.200012%, 66.999817%)" offset="0.121094"/><stop stop-opacity="1" stop-color="rgb(0.505066%, 96.994019%, 67.14325%)" offset="0.125"/><stop stop-opacity="1" stop-color="rgb(0.563049%, 96.786499%, 67.285156%)" offset="0.128906"/><stop stop-opacity="1" stop-color="rgb(0.621033%, 96.580505%, 67.427063%)" offset="0.132812"/><stop stop-opacity="1" stop-color="rgb(0.679016%, 96.374512%, 67.56897%)" offset="0.136719"/><stop stop-opacity="1" stop-color="rgb(0.737%, 96.168518%, 67.712402%)" offset="0.140625"/><stop stop-opacity="1" stop-color="rgb(0.794983%, 95.960999%, 67.854309%)" offset="0.144531"/><stop stop-opacity="1" stop-color="rgb(0.852966%, 95.755005%, 67.996216%)" offset="0.148438"/><stop stop-opacity="1" stop-color="rgb(0.91095%, 95.547485%, 68.138123%)" offset="0.152344"/><stop stop-opacity="1" stop-color="rgb(0.968933%, 95.341492%, 68.281555%)" offset="0.15625"/><stop stop-opacity="1" stop-color="rgb(1.026917%, 95.133972%, 68.423462%)" offset="0.160156"/><stop stop-opacity="1" stop-color="rgb(1.0849%, 94.927979%, 68.565369%)" offset="0.164062"/><stop stop-opacity="1" stop-color="rgb(1.142883%, 94.720459%, 68.707275%)" offset="0.167969"/><stop stop-opacity="1" stop-color="rgb(1.200867%, 94.514465%, 68.850708%)" offset="0.171875"/><stop stop-opacity="1" stop-color="rgb(1.25885%, 94.308472%, 68.992615%)" offset="0.175781"/><stop stop-opacity="1" stop-color="rgb(1.316833%, 94.102478%, 69.134521%)" offset="0.179688"/><stop stop-opacity="1" stop-color="rgb(1.374817%, 93.894958%, 69.276428%)" offset="0.183594"/><stop stop-opacity="1" stop-color="rgb(1.4328%, 93.688965%, 69.419861%)" offset="0.1875"/><stop stop-opacity="1" stop-color="rgb(1.490784%, 93.481445%, 69.561768%)" offset="0.191406"/><stop stop-opacity="1" stop-color="rgb(1.548767%, 93.275452%, 69.703674%)" offset="0.195312"/><stop stop-opacity="1" stop-color="rgb(1.60675%, 93.067932%, 69.845581%)" offset="0.199219"/><stop stop-opacity="1" stop-color="rgb(1.664734%, 92.861938%, 69.987488%)" offset="0.203125"/><stop stop-opacity="1" stop-color="rgb(1.722717%, 92.655945%, 70.129395%)" offset="0.207031"/><stop stop-opacity="1" stop-color="rgb(1.780701%, 92.449951%, 70.272827%)" offset="0.210938"/><stop stop-opacity="1" stop-color="rgb(1.838684%, 92.242432%, 70.414734%)" offset="0.214844"/><stop stop-opacity="1" stop-color="rgb(1.896667%, 92.036438%, 70.556641%)" offset="0.21875"/><stop stop-opacity="1" stop-color="rgb(1.954651%, 91.828918%, 70.698547%)" offset="0.222656"/><stop stop-opacity="1" stop-color="rgb(2.012634%, 91.622925%, 70.84198%)" offset="0.226562"/><stop stop-opacity="1" stop-color="rgb(2.070618%, 91.415405%, 70.983887%)" offset="0.230469"/><stop stop-opacity="1" stop-color="rgb(2.128601%, 91.209412%, 71.125793%)" offset="0.234375"/><stop stop-opacity="1" stop-color="rgb(2.186584%, 91.003418%, 71.2677%)" offset="0.238281"/><stop stop-opacity="1" stop-color="rgb(2.244568%, 90.797424%, 71.411133%)" offset="0.242187"/><stop stop-opacity="1" stop-color="rgb(2.302551%, 90.589905%, 71.55304%)" offset="0.246094"/><stop stop-opacity="1" stop-color="rgb(2.360535%, 90.383911%, 71.694946%)" offset="0.25"/><stop stop-opacity="1" stop-color="rgb(2.418518%, 90.176392%, 71.836853%)" offset="0.253906"/><stop stop-opacity="1" stop-color="rgb(2.476501%, 89.970398%, 71.980286%)" offset="0.257812"/><stop stop-opacity="1" stop-color="rgb(2.534485%, 89.762878%, 72.122192%)" offset="0.261719"/><stop stop-opacity="1" stop-color="rgb(2.592468%, 89.556885%, 72.264099%)" offset="0.265625"/><stop stop-opacity="1" stop-color="rgb(2.650452%, 89.350891%, 72.406006%)" offset="0.269531"/><stop stop-opacity="1" stop-color="rgb(2.708435%, 89.144897%, 72.549438%)" offset="0.273438"/><stop stop-opacity="1" stop-color="rgb(2.766418%, 88.937378%, 72.691345%)" offset="0.277344"/><stop stop-opacity="1" stop-color="rgb(2.824402%, 88.731384%, 72.833252%)" offset="0.28125"/><stop stop-opacity="1" stop-color="rgb(2.882385%, 88.523865%, 72.975159%)" offset="0.285156"/><stop stop-opacity="1" stop-color="rgb(2.940369%, 88.317871%, 73.118591%)" offset="0.289062"/><stop stop-opacity="1" stop-color="rgb(2.998352%, 88.110352%, 73.260498%)" offset="0.292969"/><stop stop-opacity="1" stop-color="rgb(3.056335%, 87.904358%, 73.402405%)" offset="0.296875"/><stop stop-opacity="1" stop-color="rgb(3.114319%, 87.698364%, 73.544312%)" offset="0.300781"/><stop stop-opacity="1" stop-color="rgb(3.172302%, 87.492371%, 73.687744%)" offset="0.304688"/><stop stop-opacity="1" stop-color="rgb(3.230286%, 87.284851%, 73.829651%)" offset="0.308594"/><stop stop-opacity="1" stop-color="rgb(3.288269%, 87.078857%, 73.971558%)" offset="0.3125"/><stop stop-opacity="1" stop-color="rgb(3.346252%, 86.871338%, 74.113464%)" offset="0.316406"/><stop stop-opacity="1" stop-color="rgb(3.404236%, 86.665344%, 74.256897%)" offset="0.320312"/><stop stop-opacity="1" stop-color="rgb(3.462219%, 86.457825%, 74.398804%)" offset="0.324219"/><stop stop-opacity="1" stop-color="rgb(3.520203%, 86.251831%, 74.54071%)" offset="0.328125"/><stop stop-opacity="1" stop-color="rgb(3.578186%, 86.045837%, 74.682617%)" offset="0.332031"/><stop stop-opacity="1" stop-color="rgb(3.636169%, 85.839844%, 74.82605%)" offset="0.335938"/><stop stop-opacity="1" stop-color="rgb(3.694153%, 85.632324%, 74.967957%)" offset="0.339844"/><stop stop-opacity="1" stop-color="rgb(3.752136%, 85.426331%, 75.109863%)" offset="0.34375"/><stop stop-opacity="1" stop-color="rgb(3.81012%, 85.218811%, 75.25177%)" offset="0.347656"/><stop stop-opacity="1" stop-color="rgb(3.868103%, 85.012817%, 75.395203%)" offset="0.351562"/><stop stop-opacity="1" stop-color="rgb(3.926086%, 84.805298%, 75.537109%)" offset="0.355469"/><stop stop-opacity="1" stop-color="rgb(3.98407%, 84.599304%, 75.679016%)" offset="0.359375"/><stop stop-opacity="1" stop-color="rgb(4.042053%, 84.391785%, 75.820923%)" offset="0.363281"/><stop stop-opacity="1" stop-color="rgb(4.100037%, 84.185791%, 75.964355%)" offset="0.367188"/><stop stop-opacity="1" stop-color="rgb(4.15802%, 83.979797%, 76.106262%)" offset="0.371094"/><stop stop-opacity="1" stop-color="rgb(4.216003%, 83.773804%, 76.248169%)" offset="0.375"/><stop stop-opacity="1" stop-color="rgb(4.273987%, 83.566284%, 76.390076%)" offset="0.378906"/><stop stop-opacity="1" stop-color="rgb(4.33197%, 83.360291%, 76.533508%)" offset="0.382812"/><stop stop-opacity="1" stop-color="rgb(4.389954%, 83.152771%, 76.675415%)" offset="0.386719"/><stop stop-opacity="1" stop-color="rgb(4.447937%, 82.946777%, 76.817322%)" offset="0.390625"/><stop stop-opacity="1" stop-color="rgb(4.50592%, 82.739258%, 76.959229%)" offset="0.394531"/><stop stop-opacity="1" stop-color="rgb(4.563904%, 82.533264%, 77.102661%)" offset="0.398438"/><stop stop-opacity="1" stop-color="rgb(4.621887%, 82.327271%, 77.244568%)" offset="0.402344"/><stop stop-opacity="1" stop-color="rgb(4.679871%, 82.121277%, 77.386475%)" offset="0.40625"/><stop stop-opacity="1" stop-color="rgb(4.737854%, 81.913757%, 77.528381%)" offset="0.410156"/><stop stop-opacity="1" stop-color="rgb(4.795837%, 81.707764%, 77.671814%)" offset="0.414062"/><stop stop-opacity="1" stop-color="rgb(4.853821%, 81.500244%, 77.813721%)" offset="0.417969"/><stop stop-opacity="1" stop-color="rgb(4.911804%, 81.29425%, 77.955627%)" offset="0.421875"/><stop stop-opacity="1" stop-color="rgb(4.969788%, 81.086731%, 78.097534%)" offset="0.425781"/><stop stop-opacity="1" stop-color="rgb(5.027771%, 80.880737%, 78.240967%)" offset="0.429688"/><stop stop-opacity="1" stop-color="rgb(5.085754%, 80.674744%, 78.382874%)" offset="0.433594"/><stop stop-opacity="1" stop-color="rgb(5.143738%, 80.46875%, 78.52478%)" offset="0.4375"/><stop stop-opacity="1" stop-color="rgb(5.201721%, 80.26123%, 78.666687%)" offset="0.441406"/><stop stop-opacity="1" stop-color="rgb(5.259705%, 80.055237%, 78.81012%)" offset="0.445313"/><stop stop-opacity="1" stop-color="rgb(5.317688%, 79.847717%, 78.952026%)" offset="0.449219"/><stop stop-opacity="1" stop-color="rgb(5.375671%, 79.641724%, 79.093933%)" offset="0.453125"/><stop stop-opacity="1" stop-color="rgb(5.433655%, 79.434204%, 79.23584%)" offset="0.457031"/><stop stop-opacity="1" stop-color="rgb(5.491638%, 79.22821%, 79.379272%)" offset="0.460938"/><stop stop-opacity="1" stop-color="rgb(5.549622%, 79.022217%, 79.521179%)" offset="0.464844"/><stop stop-opacity="1" stop-color="rgb(5.607605%, 78.816223%, 79.663086%)" offset="0.46875"/><stop stop-opacity="1" stop-color="rgb(5.665588%, 78.608704%, 79.804993%)" offset="0.472656"/><stop stop-opacity="1" stop-color="rgb(5.723572%, 78.40271%, 79.948425%)" offset="0.476562"/><stop stop-opacity="1" stop-color="rgb(5.780029%, 78.19519%, 80.090332%)" offset="0.480469"/><stop stop-opacity="1" stop-color="rgb(5.838013%, 77.989197%, 80.232239%)" offset="0.484375"/><stop stop-opacity="1" stop-color="rgb(5.895996%, 77.781677%, 80.374146%)" offset="0.488281"/><stop stop-opacity="1" stop-color="rgb(5.953979%, 77.575684%, 80.517578%)" offset="0.492187"/><stop stop-opacity="1" stop-color="rgb(6.011963%, 77.36969%, 80.659485%)" offset="0.496094"/><stop stop-opacity="1" stop-color="rgb(6.069946%, 77.163696%, 80.801392%)" offset="0.5"/><stop stop-opacity="1" stop-color="rgb(6.12793%, 76.956177%, 80.943298%)" offset="0.503906"/><stop stop-opacity="1" stop-color="rgb(6.185913%, 76.750183%, 81.086731%)" offset="0.507813"/><stop stop-opacity="1" stop-color="rgb(6.243896%, 76.542664%, 81.228638%)" offset="0.511719"/><stop stop-opacity="1" stop-color="rgb(6.30188%, 76.33667%, 81.370544%)" offset="0.515625"/><stop stop-opacity="1" stop-color="rgb(6.359863%, 76.12915%, 81.512451%)" offset="0.519531"/><stop stop-opacity="1" stop-color="rgb(6.417847%, 75.923157%, 81.655884%)" offset="0.523438"/><stop stop-opacity="1" stop-color="rgb(6.47583%, 75.717163%, 81.797791%)" offset="0.527344"/><stop stop-opacity="1" stop-color="rgb(6.533813%, 75.511169%, 81.939697%)" offset="0.53125"/><stop stop-opacity="1" stop-color="rgb(6.591797%, 75.30365%, 82.081604%)" offset="0.535156"/><stop stop-opacity="1" stop-color="rgb(6.64978%, 75.097656%, 82.225037%)" offset="0.539062"/><stop stop-opacity="1" stop-color="rgb(6.707764%, 74.890137%, 82.366943%)" offset="0.542969"/><stop stop-opacity="1" stop-color="rgb(6.765747%, 74.684143%, 82.50885%)" offset="0.546875"/><stop stop-opacity="1" stop-color="rgb(6.82373%, 74.476624%, 82.650757%)" offset="0.550781"/><stop stop-opacity="1" stop-color="rgb(6.881714%, 74.27063%, 82.794189%)" offset="0.554688"/><stop stop-opacity="1" stop-color="rgb(6.939697%, 74.06311%, 82.936096%)" offset="0.558594"/><stop stop-opacity="1" stop-color="rgb(6.997681%, 73.857117%, 83.078003%)" offset="0.5625"/><stop stop-opacity="1" stop-color="rgb(7.055664%, 73.651123%, 83.21991%)" offset="0.566406"/><stop stop-opacity="1" stop-color="rgb(7.113647%, 73.445129%, 83.363342%)" offset="0.570312"/><stop stop-opacity="1" stop-color="rgb(7.171631%, 73.23761%, 83.505249%)" offset="0.574219"/><stop stop-opacity="1" stop-color="rgb(7.229614%, 73.031616%, 83.647156%)" offset="0.578125"/><stop stop-opacity="1" stop-color="rgb(7.287598%, 72.824097%, 83.789062%)" offset="0.582031"/><stop stop-opacity="1" stop-color="rgb(7.345581%, 72.618103%, 83.932495%)" offset="0.585937"/><stop stop-opacity="1" stop-color="rgb(7.403564%, 72.410583%, 84.074402%)" offset="0.589844"/><stop stop-opacity="1" stop-color="rgb(7.461548%, 72.20459%, 84.216309%)" offset="0.59375"/><stop stop-opacity="1" stop-color="rgb(7.519531%, 71.998596%, 84.358215%)" offset="0.597656"/><stop stop-opacity="1" stop-color="rgb(7.577515%, 71.792603%, 84.501648%)" offset="0.601562"/><stop stop-opacity="1" stop-color="rgb(7.635498%, 71.585083%, 84.643555%)" offset="0.605469"/><stop stop-opacity="1" stop-color="rgb(7.693481%, 71.379089%, 84.785461%)" offset="0.609375"/><stop stop-opacity="1" stop-color="rgb(7.751465%, 71.17157%, 84.927368%)" offset="0.613281"/><stop stop-opacity="1" stop-color="rgb(7.809448%, 70.965576%, 85.070801%)" offset="0.617188"/><stop stop-opacity="1" stop-color="rgb(7.867432%, 70.758057%, 85.212708%)" offset="0.621094"/><stop stop-opacity="1" stop-color="rgb(7.925415%, 70.552063%, 85.354614%)" offset="0.625"/><stop stop-opacity="1" stop-color="rgb(7.983398%, 70.346069%, 85.496521%)" offset="0.628906"/><stop stop-opacity="1" stop-color="rgb(8.041382%, 70.140076%, 85.639954%)" offset="0.632812"/><stop stop-opacity="1" stop-color="rgb(8.099365%, 69.932556%, 85.78186%)" offset="0.636719"/><stop stop-opacity="1" stop-color="rgb(8.157349%, 69.726562%, 85.923767%)" offset="0.640625"/><stop stop-opacity="1" stop-color="rgb(8.215332%, 69.519043%, 86.065674%)" offset="0.644531"/><stop stop-opacity="1" stop-color="rgb(8.273315%, 69.313049%, 86.209106%)" offset="0.648437"/><stop stop-opacity="1" stop-color="rgb(8.331299%, 69.10553%, 86.351013%)" offset="0.652344"/><stop stop-opacity="1" stop-color="rgb(8.389282%, 68.899536%, 86.49292%)" offset="0.65625"/><stop stop-opacity="1" stop-color="rgb(8.447266%, 68.693542%, 86.634827%)" offset="0.660156"/><stop stop-opacity="1" stop-color="rgb(8.505249%, 68.487549%, 86.778259%)" offset="0.664063"/><stop stop-opacity="1" stop-color="rgb(8.563232%, 68.280029%, 86.920166%)" offset="0.667969"/><stop stop-opacity="1" stop-color="rgb(8.621216%, 68.074036%, 87.062073%)" offset="0.671875"/><stop stop-opacity="1" stop-color="rgb(8.679199%, 67.866516%, 87.203979%)" offset="0.675781"/><stop stop-opacity="1" stop-color="rgb(8.737183%, 67.660522%, 87.347412%)" offset="0.679688"/><stop stop-opacity="1" stop-color="rgb(8.795166%, 67.453003%, 87.489319%)" offset="0.683594"/><stop stop-opacity="1" stop-color="rgb(8.853149%, 67.247009%, 87.631226%)" offset="0.6875"/><stop stop-opacity="1" stop-color="rgb(8.911133%, 67.041016%, 87.773132%)" offset="0.691406"/><stop stop-opacity="1" stop-color="rgb(8.969116%, 66.835022%, 87.916565%)" offset="0.695312"/><stop stop-opacity="1" stop-color="rgb(9.0271%, 66.627502%, 88.058472%)" offset="0.699219"/><stop stop-opacity="1" stop-color="rgb(9.085083%, 66.421509%, 88.200378%)" offset="0.703125"/><stop stop-opacity="1" stop-color="rgb(9.143066%, 66.213989%, 88.342285%)" offset="0.707031"/><stop stop-opacity="1" stop-color="rgb(9.20105%, 66.007996%, 88.485718%)" offset="0.710938"/><stop stop-opacity="1" stop-color="rgb(9.259033%, 65.800476%, 88.627625%)" offset="0.714844"/><stop stop-opacity="1" stop-color="rgb(9.317017%, 65.594482%, 88.769531%)" offset="0.71875"/><stop stop-opacity="1" stop-color="rgb(9.375%, 65.386963%, 88.911438%)" offset="0.722656"/><stop stop-opacity="1" stop-color="rgb(9.432983%, 65.180969%, 89.054871%)" offset="0.726563"/><stop stop-opacity="1" stop-color="rgb(9.490967%, 64.974976%, 89.196777%)" offset="0.730469"/><stop stop-opacity="1" stop-color="rgb(9.54895%, 64.768982%, 89.338684%)" offset="0.734375"/><stop stop-opacity="1" stop-color="rgb(9.606934%, 64.561462%, 89.480591%)" offset="0.738281"/><stop stop-opacity="1" stop-color="rgb(9.664917%, 64.355469%, 89.624023%)" offset="0.742188"/><stop stop-opacity="1" stop-color="rgb(9.7229%, 64.147949%, 89.76593%)" offset="0.746094"/><stop stop-opacity="1" stop-color="rgb(9.780884%, 63.941956%, 89.907837%)" offset="0.75"/><stop stop-opacity="1" stop-color="rgb(9.838867%, 63.734436%, 90.049744%)" offset="0.753906"/><stop stop-opacity="1" stop-color="rgb(9.896851%, 63.528442%, 90.193176%)" offset="0.757812"/><stop stop-opacity="1" stop-color="rgb(9.954834%, 63.322449%, 90.335083%)" offset="0.761719"/><stop stop-opacity="1" stop-color="rgb(10.012817%, 63.116455%, 90.47699%)" offset="0.765625"/><stop stop-opacity="1" stop-color="rgb(10.070801%, 62.908936%, 90.618896%)" offset="0.769531"/><stop stop-opacity="1" stop-color="rgb(10.128784%, 62.702942%, 90.760803%)" offset="0.773438"/><stop stop-opacity="1" stop-color="rgb(10.186768%, 62.495422%, 90.90271%)" offset="0.777344"/><stop stop-opacity="1" stop-color="rgb(10.244751%, 62.289429%, 91.046143%)" offset="0.78125"/><stop stop-opacity="1" stop-color="rgb(10.302734%, 62.081909%, 91.188049%)" offset="0.785156"/><stop stop-opacity="1" stop-color="rgb(10.360718%, 61.875916%, 91.329956%)" offset="0.789062"/><stop stop-opacity="1" stop-color="rgb(10.418701%, 61.669922%, 91.471863%)" offset="0.792969"/><stop stop-opacity="1" stop-color="rgb(10.476685%, 61.463928%, 91.615295%)" offset="0.796875"/><stop stop-opacity="1" stop-color="rgb(10.534668%, 61.256409%, 91.757202%)" offset="0.800781"/><stop stop-opacity="1" stop-color="rgb(10.592651%, 61.050415%, 91.899109%)" offset="0.804687"/><stop stop-opacity="1" stop-color="rgb(10.650635%, 60.842896%, 92.041016%)" offset="0.808594"/><stop stop-opacity="1" stop-color="rgb(10.708618%, 60.636902%, 92.184448%)" offset="0.8125"/><stop stop-opacity="1" stop-color="rgb(10.766602%, 60.429382%, 92.326355%)" offset="0.816406"/><stop stop-opacity="1" stop-color="rgb(10.824585%, 60.223389%, 92.468262%)" offset="0.820313"/><stop stop-opacity="1" stop-color="rgb(10.882568%, 60.017395%, 92.610168%)" offset="0.824219"/><stop stop-opacity="1" stop-color="rgb(10.940552%, 59.811401%, 92.753601%)" offset="0.828125"/><stop stop-opacity="1" stop-color="rgb(10.969543%, 59.70459%, 92.825317%)" offset="0.84375"/><stop stop-opacity="1" stop-color="rgb(10.998535%, 59.599304%, 92.89856%)" offset="0.875"/><stop stop-opacity="1" stop-color="rgb(10.998535%, 59.599304%, 92.89856%)" offset="1"/></linearGradient></defs><rect x="-9.6" width="115.2" fill="#ffffff" y="-9.6" height="115.199999" fill-opacity="1"/><rect x="-9.6" width="115.2" fill="#292929" y="-9.6" height="115.199999" fill-opacity="1"/><g clip-path="url(#4f26ca496a)"><g clip-path="url(#3c2dd45e7a)"><path fill="url(#b120092d93)" d="M 18.75 17.292969 L 18.75 78.699219 L 77.242188 78.699219 L 77.242188 17.292969 Z M 18.75 17.292969 " fill-rule="nonzero"/></g></g><g fill="#000000" fill-opacity="1"><g transform="translate(39.533202, 49.124999)"><g><path d="M 2.46875 -2.015625 L 2.46875 -1.75 L 2 -1.75 L 1.890625 -1.109375 L 2.359375 -1.109375 L 2.359375 -0.84375 L 1.84375 -0.84375 L 1.703125 0 L 1.40625 0 L 1.546875 -0.84375 L 0.890625 -0.84375 L 0.75 0 L 0.46875 0 L 0.609375 -0.84375 L 0.1875 -0.84375 L 0.1875 -1.109375 L 0.65625 -1.109375 L 0.765625 -1.75 L 0.296875 -1.75 L 0.296875 -2.015625 L 0.8125 -2.015625 L 0.953125 -2.859375 L 1.234375 -2.859375 L 1.09375 -2.015625 L 1.75 -2.015625 L 1.890625 -2.859375 L 2.1875 -2.859375 L 2.03125 -2.015625 Z M 0.9375 -1.109375 L 1.59375 -1.109375 L 1.703125 -1.75 L 1.046875 -1.75 Z M 0.9375 -1.109375 "/></g></g></g><g fill="#000000" fill-opacity="1"><g transform="translate(42.17515, 49.124999)"><g><path d="M 0.171875 -0.125 C 0.171875 -0.289062 0.1875 -0.421875 0.21875 -0.515625 C 0.257812 -0.609375 0.320312 -0.695312 0.40625 -0.78125 C 0.488281 -0.863281 0.617188 -0.972656 0.796875 -1.109375 L 1.109375 -1.328125 C 1.222656 -1.421875 1.316406 -1.5 1.390625 -1.5625 C 1.460938 -1.632812 1.519531 -1.710938 1.5625 -1.796875 C 1.613281 -1.878906 1.640625 -1.972656 1.640625 -2.078125 C 1.640625 -2.253906 1.59375 -2.382812 1.5 -2.46875 C 1.40625 -2.550781 1.265625 -2.59375 1.078125 -2.59375 C 0.921875 -2.59375 0.785156 -2.554688 0.671875 -2.484375 C 0.554688 -2.421875 0.460938 -2.320312 0.390625 -2.1875 L 0.34375 -2.1875 L 0.140625 -2.390625 C 0.242188 -2.546875 0.375 -2.664062 0.53125 -2.75 C 0.6875 -2.84375 0.867188 -2.890625 1.078125 -2.890625 C 1.273438 -2.890625 1.441406 -2.851562 1.578125 -2.78125 C 1.710938 -2.71875 1.8125 -2.625 1.875 -2.5 C 1.9375 -2.382812 1.96875 -2.242188 1.96875 -2.078125 C 1.96875 -1.953125 1.941406 -1.832031 1.890625 -1.71875 C 1.835938 -1.613281 1.757812 -1.507812 1.65625 -1.40625 C 1.5625 -1.3125 1.441406 -1.210938 1.296875 -1.109375 L 0.984375 -0.875 C 0.867188 -0.789062 0.773438 -0.71875 0.703125 -0.65625 C 0.640625 -0.59375 0.59375 -0.53125 0.5625 -0.46875 C 0.539062 -0.414062 0.53125 -0.351562 0.53125 -0.28125 L 1.96875 -0.28125 L 1.96875 0 L 0.171875 0 Z M 0.171875 -0.125 "/></g></g></g><g fill="#000000" fill-opacity="1"><g transform="translate(44.368319, 49.124999)"><g><path d="M 1.203125 0.046875 C 0.960938 0.046875 0.765625 -0.0078125 0.609375 -0.125 C 0.453125 -0.238281 0.351562 -0.394531 0.3125 -0.59375 L 0.5625 -0.703125 L 0.609375 -0.703125 C 0.648438 -0.554688 0.71875 -0.445312 0.8125 -0.375 C 0.90625 -0.300781 1.035156 -0.265625 1.203125 -0.265625 C 1.441406 -0.265625 1.625 -0.363281 1.75 -0.5625 C 1.875 -0.757812 1.9375 -1.066406 1.9375 -1.484375 L 1.890625 -1.484375 C 1.816406 -1.328125 1.71875 -1.207031 1.59375 -1.125 C 1.46875 -1.039062 1.3125 -1 1.125 -1 C 0.945312 -1 0.789062 -1.035156 0.65625 -1.109375 C 0.53125 -1.191406 0.429688 -1.300781 0.359375 -1.4375 C 0.285156 -1.582031 0.25 -1.753906 0.25 -1.953125 C 0.25 -2.140625 0.285156 -2.300781 0.359375 -2.4375 C 0.441406 -2.582031 0.554688 -2.691406 0.703125 -2.765625 C 0.847656 -2.847656 1.015625 -2.890625 1.203125 -2.890625 C 1.535156 -2.890625 1.796875 -2.773438 1.984375 -2.546875 C 2.179688 -2.328125 2.28125 -1.96875 2.28125 -1.46875 C 2.28125 -1.125 2.234375 -0.835938 2.140625 -0.609375 C 2.054688 -0.390625 1.929688 -0.222656 1.765625 -0.109375 C 1.609375 -0.00390625 1.421875 0.046875 1.203125 0.046875 Z M 1.203125 -1.296875 C 1.335938 -1.296875 1.453125 -1.320312 1.546875 -1.375 C 1.640625 -1.425781 1.710938 -1.5 1.765625 -1.59375 C 1.816406 -1.695312 1.84375 -1.816406 1.84375 -1.953125 C 1.84375 -2.085938 1.816406 -2.203125 1.765625 -2.296875 C 1.710938 -2.390625 1.640625 -2.460938 1.546875 -2.515625 C 1.453125 -2.566406 1.335938 -2.59375 1.203125 -2.59375 C 1.015625 -2.59375 0.867188 -2.535156 0.765625 -2.421875 C 0.660156 -2.316406 0.609375 -2.160156 0.609375 -1.953125 C 0.609375 -1.734375 0.660156 -1.566406 0.765625 -1.453125 C 0.867188 -1.347656 1.015625 -1.296875 1.203125 -1.296875 Z M 1.203125 -1.296875 "/></g></g></g><g fill="#000000" fill-opacity="1"><g transform="translate(46.936121, 49.124999)"><g><path d="M 0.171875 -0.125 C 0.171875 -0.289062 0.1875 -0.421875 0.21875 -0.515625 C 0.257812 -0.609375 0.320312 -0.695312 0.40625 -0.78125 C 0.488281 -0.863281 0.617188 -0.972656 0.796875 -1.109375 L 1.109375 -1.328125 C 1.222656 -1.421875 1.316406 -1.5 1.390625 -1.5625 C 1.460938 -1.632812 1.519531 -1.710938 1.5625 -1.796875 C 1.613281 -1.878906 1.640625 -1.972656 1.640625 -2.078125 C 1.640625 -2.253906 1.59375 -2.382812 1.5 -2.46875 C 1.40625 -2.550781 1.265625 -2.59375 1.078125 -2.59375 C 0.921875 -2.59375 0.785156 -2.554688 0.671875 -2.484375 C 0.554688 -2.421875 0.460938 -2.320312 0.390625 -2.1875 L 0.34375 -2.1875 L 0.140625 -2.390625 C 0.242188 -2.546875 0.375 -2.664062 0.53125 -2.75 C 0.6875 -2.84375 0.867188 -2.890625 1.078125 -2.890625 C 1.273438 -2.890625 1.441406 -2.851562 1.578125 -2.78125 C 1.710938 -2.71875 1.8125 -2.625 1.875 -2.5 C 1.9375 -2.382812 1.96875 -2.242188 1.96875 -2.078125 C 1.96875 -1.953125 1.941406 -1.832031 1.890625 -1.71875 C 1.835938 -1.613281 1.757812 -1.507812 1.65625 -1.40625 C 1.5625 -1.3125 1.441406 -1.210938 1.296875 -1.109375 L 0.984375 -0.875 C 0.867188 -0.789062 0.773438 -0.71875 0.703125 -0.65625 C 0.640625 -0.59375 0.59375 -0.53125 0.5625 -0.46875 C 0.539062 -0.414062 0.53125 -0.351562 0.53125 -0.28125 L 1.96875 -0.28125 L 1.96875 0 L 0.171875 0 Z M 0.171875 -0.125 "/></g></g></g><g fill="#000000" fill-opacity="1"><g transform="translate(49.12929, 49.124999)"><g><path d="M 1.203125 0.046875 C 0.960938 0.046875 0.765625 -0.0078125 0.609375 -0.125 C 0.453125 -0.238281 0.351562 -0.394531 0.3125 -0.59375 L 0.5625 -0.703125 L 0.609375 -0.703125 C 0.648438 -0.554688 0.71875 -0.445312 0.8125 -0.375 C 0.90625 -0.300781 1.035156 -0.265625 1.203125 -0.265625 C 1.441406 -0.265625 1.625 -0.363281 1.75 -0.5625 C 1.875 -0.757812 1.9375 -1.066406 1.9375 -1.484375 L 1.890625 -1.484375 C 1.816406 -1.328125 1.71875 -1.207031 1.59375 -1.125 C 1.46875 -1.039062 1.3125 -1 1.125 -1 C 0.945312 -1 0.789062 -1.035156 0.65625 -1.109375 C 0.53125 -1.191406 0.429688 -1.300781 0.359375 -1.4375 C 0.285156 -1.582031 0.25 -1.753906 0.25 -1.953125 C 0.25 -2.140625 0.285156 -2.300781 0.359375 -2.4375 C 0.441406 -2.582031 0.554688 -2.691406 0.703125 -2.765625 C 0.847656 -2.847656 1.015625 -2.890625 1.203125 -2.890625 C 1.535156 -2.890625 1.796875 -2.773438 1.984375 -2.546875 C 2.179688 -2.328125 2.28125 -1.96875 2.28125 -1.46875 C 2.28125 -1.125 2.234375 -0.835938 2.140625 -0.609375 C 2.054688 -0.390625 1.929688 -0.222656 1.765625 -0.109375 C 1.609375 -0.00390625 1.421875 0.046875 1.203125 0.046875 Z M 1.203125 -1.296875 C 1.335938 -1.296875 1.453125 -1.320312 1.546875 -1.375 C 1.640625 -1.425781 1.710938 -1.5 1.765625 -1.59375 C 1.816406 -1.695312 1.84375 -1.816406 1.84375 -1.953125 C 1.84375 -2.085938 1.816406 -2.203125 1.765625 -2.296875 C 1.710938 -2.390625 1.640625 -2.460938 1.546875 -2.515625 C 1.453125 -2.566406 1.335938 -2.59375 1.203125 -2.59375 C 1.015625 -2.59375 0.867188 -2.535156 0.765625 -2.421875 C 0.660156 -2.316406 0.609375 -2.160156 0.609375 -1.953125 C 0.609375 -1.734375 0.660156 -1.566406 0.765625 -1.453125 C 0.867188 -1.347656 1.015625 -1.296875 1.203125 -1.296875 Z M 1.203125 -1.296875 "/></g></g></g><g fill="#000000" fill-opacity="1"><g transform="translate(51.697092, 49.124999)"><g><path d="M 0.171875 -0.125 C 0.171875 -0.289062 0.1875 -0.421875 0.21875 -0.515625 C 0.257812 -0.609375 0.320312 -0.695312 0.40625 -0.78125 C 0.488281 -0.863281 0.617188 -0.972656 0.796875 -1.109375 L 1.109375 -1.328125 C 1.222656 -1.421875 1.316406 -1.5 1.390625 -1.5625 C 1.460938 -1.632812 1.519531 -1.710938 1.5625 -1.796875 C 1.613281 -1.878906 1.640625 -1.972656 1.640625 -2.078125 C 1.640625 -2.253906 1.59375 -2.382812 1.5 -2.46875 C 1.40625 -2.550781 1.265625 -2.59375 1.078125 -2.59375 C 0.921875 -2.59375 0.785156 -2.554688 0.671875 -2.484375 C 0.554688 -2.421875 0.460938 -2.320312 0.390625 -2.1875 L 0.34375 -2.1875 L 0.140625 -2.390625 C 0.242188 -2.546875 0.375 -2.664062 0.53125 -2.75 C 0.6875 -2.84375 0.867188 -2.890625 1.078125 -2.890625 C 1.273438 -2.890625 1.441406 -2.851562 1.578125 -2.78125 C 1.710938 -2.71875 1.8125 -2.625 1.875 -2.5 C 1.9375 -2.382812 1.96875 -2.242188 1.96875 -2.078125 C 1.96875 -1.953125 1.941406 -1.832031 1.890625 -1.71875 C 1.835938 -1.613281 1.757812 -1.507812 1.65625 -1.40625 C 1.5625 -1.3125 1.441406 -1.210938 1.296875 -1.109375 L 0.984375 -0.875 C 0.867188 -0.789062 0.773438 -0.71875 0.703125 -0.65625 C 0.640625 -0.59375 0.59375 -0.53125 0.5625 -0.46875 C 0.539062 -0.414062 0.53125 -0.351562 0.53125 -0.28125 L 1.96875 -0.28125 L 1.96875 0 L 0.171875 0 Z M 0.171875 -0.125 "/></g></g></g><g fill="#000000" fill-opacity="1"><g transform="translate(53.890261, 49.124999)"><g><path d="M 1.203125 0.046875 C 0.960938 0.046875 0.765625 -0.0078125 0.609375 -0.125 C 0.453125 -0.238281 0.351562 -0.394531 0.3125 -0.59375 L 0.5625 -0.703125 L 0.609375 -0.703125 C 0.648438 -0.554688 0.71875 -0.445312 0.8125 -0.375 C 0.90625 -0.300781 1.035156 -0.265625 1.203125 -0.265625 C 1.441406 -0.265625 1.625 -0.363281 1.75 -0.5625 C 1.875 -0.757812 1.9375 -1.066406 1.9375 -1.484375 L 1.890625 -1.484375 C 1.816406 -1.328125 1.71875 -1.207031 1.59375 -1.125 C 1.46875 -1.039062 1.3125 -1 1.125 -1 C 0.945312 -1 0.789062 -1.035156 0.65625 -1.109375 C 0.53125 -1.191406 0.429688 -1.300781 0.359375 -1.4375 C 0.285156 -1.582031 0.25 -1.753906 0.25 -1.953125 C 0.25 -2.140625 0.285156 -2.300781 0.359375 -2.4375 C 0.441406 -2.582031 0.554688 -2.691406 0.703125 -2.765625 C 0.847656 -2.847656 1.015625 -2.890625 1.203125 -2.890625 C 1.535156 -2.890625 1.796875 -2.773438 1.984375 -2.546875 C 2.179688 -2.328125 2.28125 -1.96875 2.28125 -1.46875 C 2.28125 -1.125 2.234375 -0.835938 2.140625 -0.609375 C 2.054688 -0.390625 1.929688 -0.222656 1.765625 -0.109375 C 1.609375 -0.00390625 1.421875 0.046875 1.203125 0.046875 Z M 1.203125 -1.296875 C 1.335938 -1.296875 1.453125 -1.320312 1.546875 -1.375 C 1.640625 -1.425781 1.710938 -1.5 1.765625 -1.59375 C 1.816406 -1.695312 1.84375 -1.816406 1.84375 -1.953125 C 1.84375 -2.085938 1.816406 -2.203125 1.765625 -2.296875 C 1.710938 -2.390625 1.640625 -2.460938 1.546875 -2.515625 C 1.453125 -2.566406 1.335938 -2.59375 1.203125 -2.59375 C 1.015625 -2.59375 0.867188 -2.535156 0.765625 -2.421875 C 0.660156 -2.316406 0.609375 -2.160156 0.609375 -1.953125 C 0.609375 -1.734375 0.660156 -1.566406 0.765625 -1.453125 C 0.867188 -1.347656 1.015625 -1.296875 1.203125 -1.296875 Z M 1.203125 -1.296875 "/></g></g></g></svg>