<svg xmlns="http://www.w3.org/2000/svg" xmlns:xlink="http://www.w3.org/1999/xlink" width="518" zoomAndPan="magnify" viewBox="0 0 388.5 125.999998" height="168" preserveAspectRatio="xMidYMid meet" version="1.0"><defs><g/><clipPath id="01b71d342f"><path d="M 340.804688 80.742188 L 353.988281 80.742188 L 353.988281 93.925781 L 340.804688 93.925781 Z M 340.804688 80.742188 " clip-rule="nonzero"/></clipPath><clipPath id="549b70675d"><path d="M 347.394531 80.742188 C 343.753906 80.742188 340.804688 83.695312 340.804688 87.335938 C 340.804688 90.976562 343.753906 93.925781 347.394531 93.925781 C 351.039062 93.925781 353.988281 90.976562 353.988281 87.335938 C 353.988281 83.695312 351.039062 80.742188 347.394531 80.742188 Z M 347.394531 80.742188 " clip-rule="nonzero"/></clipPath></defs><g clip-path="url(#01b71d342f)"><g clip-path="url(#549b70675d)"><path fill="#00faa8" d="M 340.804688 80.742188 L 353.988281 80.742188 L 353.988281 93.925781 L 340.804688 93.925781 Z M 340.804688 80.742188 " fill-opacity="1" fill-rule="nonzero"/></g></g><g fill="#000000" fill-opacity="1"><g transform="translate(31.888194, 93.60401)"><g><path d="M 3.375 -62.046875 L 24.226562 -62.046875 L 24.226562 -52.679688 L 12.492188 -52.679688 L 12.492188 -36.386719 L 20.9375 -36.386719 L 20.9375 -26.421875 L 12.492188 -26.421875 L 12.492188 -9.371094 L 24.226562 -9.371094 L 24.226562 0 L 3.375 0 Z M 3.375 -62.046875 "/></g></g></g><g fill="#000000" fill-opacity="1"><g transform="translate(57.805009, 93.60401)"><g><path d="M 19.921875 -62.046875 L 28.785156 -62.046875 L 19.332031 0 L 10.214844 0 L 0.761719 -62.046875 L 9.625 -62.046875 L 14.183594 -27.941406 L 14.519531 -25.324219 L 15.027344 -25.324219 L 15.363281 -27.941406 Z M 19.921875 -62.046875 "/></g></g></g><g fill="#000000" fill-opacity="1"><g transform="translate(87.351855, 93.60401)"><g><path d="M 3.375 -62.046875 L 24.226562 -62.046875 L 24.226562 -52.679688 L 12.492188 -52.679688 L 12.492188 -36.386719 L 20.9375 -36.386719 L 20.9375 -26.421875 L 12.492188 -26.421875 L 12.492188 -9.371094 L 24.226562 -9.371094 L 24.226562 0 L 3.375 0 Z M 3.375 -62.046875 "/></g></g></g><g fill="#000000" fill-opacity="1"><g transform="translate(113.26867, 93.60401)"><g><path d="M 13 -32.332031 L 12.242188 -35.203125 L 11.734375 -35.203125 L 11.734375 0 L 3.375 0 L 3.375 -62.046875 L 11.480469 -62.046875 L 20.34375 -29.714844 L 21.105469 -26.84375 L 21.613281 -26.84375 L 21.613281 -62.046875 L 29.96875 -62.046875 L 29.96875 0 L 21.863281 0 Z M 13 -32.332031 "/></g></g></g><g fill="#000000" fill-opacity="1"><g transform="translate(146.614408, 93.60401)"><g><path d="M 0.167969 -52.679688 L 0.167969 -62.046875 L 26.507812 -62.046875 L 26.507812 -52.679688 L 17.898438 -52.679688 L 17.898438 0 L 8.78125 0 L 8.78125 -52.679688 Z M 0.167969 -52.679688 "/></g></g></g><g fill="#000000" fill-opacity="1"><g transform="translate(173.291114, 93.60401)"><g/></g></g><g fill="#545454" fill-opacity="1"><g transform="translate(186.300315, 93.60401)"><g><path d="M 18.488281 -45.417969 C 18.488281 -47.445312 18.402344 -49.722656 17.8125 -51.496094 C 17.222656 -53.183594 16.292969 -54.367188 14.859375 -54.367188 C 12.492188 -54.28125 11.734375 -51.832031 11.734375 -48.203125 C 11.734375 -46.09375 12.664062 -43.898438 14.011719 -41.535156 C 15.363281 -39.171875 17.136719 -36.722656 18.910156 -34.105469 C 21.019531 -30.980469 23.132812 -27.773438 24.734375 -24.652344 C 26.339844 -21.527344 27.4375 -18.320312 27.4375 -14.941406 C 27.4375 -10.804688 26.761719 -6.921875 24.820312 -4.050781 C 22.878906 -1.183594 19.753906 0.675781 14.773438 0.675781 C 8.949219 0.675781 5.65625 -1.519531 3.800781 -4.894531 C 1.941406 -8.273438 1.519531 -12.746094 1.519531 -17.390625 L 10.46875 -18.234375 C 10.46875 -15.617188 10.550781 -13 11.226562 -11.058594 C 11.820312 -9.03125 12.832031 -7.683594 14.773438 -7.683594 C 17.476562 -7.683594 18.488281 -10.550781 18.488281 -14.519531 C 18.488281 -16.546875 17.476562 -18.910156 16.125 -21.359375 C 15.363281 -22.539062 14.605469 -23.804688 13.761719 -25.074219 C 11.988281 -27.605469 10.046875 -30.476562 8.019531 -33.597656 C 5.992188 -36.722656 4.472656 -39.929688 3.546875 -43.222656 C 3.039062 -44.828125 2.785156 -46.515625 2.785156 -48.203125 C 2.785156 -51.582031 3.546875 -55.210938 5.488281 -57.996094 C 7.429688 -60.699219 10.382812 -62.640625 14.6875 -62.722656 C 20.175781 -62.808594 23.382812 -60.527344 25.15625 -57.238281 C 26.929688 -53.859375 27.4375 -49.722656 27.4375 -46.261719 Z M 18.488281 -45.417969 "/></g></g></g><g fill="#545454" fill-opacity="1"><g transform="translate(215.256226, 93.60401)"><g><path d="M 27.097656 -21.273438 L 27.097656 -12.746094 C 27.015625 -10.214844 26.507812 -7.933594 25.578125 -5.992188 C 24.820312 -4.304688 23.636719 -2.703125 21.949219 -1.433594 C 20.261719 -0.0859375 17.980469 0.675781 14.941406 0.675781 C 11.902344 0.675781 9.539062 -0.0859375 7.851562 -1.433594 C 6.164062 -2.703125 5.066406 -4.304688 4.304688 -5.992188 C 3.375 -7.933594 2.871094 -10.214844 2.785156 -12.746094 L 2.785156 -49.300781 C 2.871094 -51.75 3.375 -54.027344 4.304688 -55.96875 C 5.066406 -57.660156 6.164062 -59.347656 7.851562 -60.613281 C 9.539062 -61.878906 11.902344 -62.722656 14.941406 -62.722656 C 17.980469 -62.722656 20.261719 -61.878906 21.949219 -60.613281 C 23.636719 -59.347656 24.820312 -57.660156 25.578125 -55.96875 C 26.507812 -54.027344 27.015625 -51.75 27.097656 -49.300781 L 27.097656 -40.773438 L 18.574219 -40.773438 L 18.574219 -49.300781 C 18.574219 -50.988281 18.148438 -52.171875 17.222656 -53.183594 C 16.800781 -53.605469 16.039062 -53.859375 15.109375 -53.859375 C 13.507812 -53.859375 12.746094 -52.679688 12.324219 -51.582031 C 12.070312 -50.90625 11.988281 -50.144531 11.902344 -49.300781 L 11.902344 -12.746094 C 11.988281 -10.972656 12.492188 -9.792969 13.339844 -8.863281 C 13.761719 -8.441406 14.351562 -8.1875 15.109375 -8.1875 C 17.054688 -8.1875 17.8125 -9.203125 18.234375 -10.46875 C 18.488281 -11.058594 18.574219 -11.820312 18.574219 -12.746094 L 18.574219 -21.273438 Z M 27.097656 -21.273438 "/></g></g></g><g fill="#545454" fill-opacity="1"><g transform="translate(244.465402, 93.60401)"><g><path d="M 0.84375 0 L 10.214844 -62.046875 L 21.359375 -62.046875 L 30.730469 0 L 21.863281 0 L 20.175781 -12.664062 L 11.398438 -12.664062 L 9.707031 0 Z M 16.292969 -41.871094 L 16.039062 -43.476562 L 15.535156 -43.476562 L 15.28125 -41.871094 L 12.664062 -22.285156 L 18.910156 -22.285156 Z M 16.292969 -41.871094 "/></g></g></g><g fill="#545454" fill-opacity="1"><g transform="translate(276.038319, 93.60401)"><g><path d="M 3.375 -62.046875 L 12.492188 -62.046875 C 16.460938 -62.046875 20.429688 -61.035156 23.46875 -58.164062 C 26.507812 -55.292969 28.535156 -50.566406 28.535156 -43.476562 C 28.535156 -36.386719 26.507812 -31.742188 23.46875 -28.871094 C 20.429688 -26 16.460938 -24.820312 12.492188 -24.820312 L 12.492188 0 L 3.375 0 Z M 12.492188 -34.105469 C 15.28125 -34.105469 17.054688 -34.613281 18.066406 -36.046875 C 19.078125 -37.398438 19.332031 -39.675781 19.332031 -43.136719 C 19.332031 -46.601562 19.078125 -49.046875 18.066406 -50.566406 C 17.054688 -52.085938 15.28125 -52.761719 12.492188 -52.761719 Z M 12.492188 -34.105469 "/></g></g></g><g fill="#545454" fill-opacity="1"><g transform="translate(305.754008, 93.60401)"><g><path d="M 3.375 -62.046875 L 24.226562 -62.046875 L 24.226562 -52.679688 L 12.492188 -52.679688 L 12.492188 -36.386719 L 20.9375 -36.386719 L 20.9375 -26.421875 L 12.492188 -26.421875 L 12.492188 -9.371094 L 24.226562 -9.371094 L 24.226562 0 L 3.375 0 Z M 3.375 -62.046875 "/></g></g></g></svg>