<svg xmlns="http://www.w3.org/2000/svg" xmlns:xlink="http://www.w3.org/1999/xlink" width="518" zoomAndPan="magnify" viewBox="0 0 388.5 125.999998" height="168" preserveAspectRatio="xMidYMid meet" version="1.0"><defs><g/><clipPath id="0f6b90764d"><path d="M 0 0.0820312 L 388 0.0820312 L 388 125.917969 L 0 125.917969 Z M 0 0.0820312 " clip-rule="nonzero"/></clipPath><clipPath id="7343f1b7bb"><path d="M 368.523438 68.949219 L 381.707031 68.949219 L 381.707031 82.132812 L 368.523438 82.132812 Z M 368.523438 68.949219 " clip-rule="nonzero"/></clipPath><clipPath id="437f981765"><path d="M 375.117188 68.949219 C 371.476562 68.949219 368.523438 71.898438 368.523438 75.539062 C 368.523438 79.183594 371.476562 82.132812 375.117188 82.132812 C 378.757812 82.132812 381.707031 79.183594 381.707031 75.539062 C 381.707031 71.898438 378.757812 68.949219 375.117188 68.949219 Z M 375.117188 68.949219 " clip-rule="nonzero"/></clipPath><clipPath id="22c636ba48"><path d="M 6.292969 34.109375 L 60.972656 34.109375 L 60.972656 91.785156 L 6.292969 91.785156 Z M 6.292969 34.109375 " clip-rule="nonzero"/></clipPath><clipPath id="122463efd2"><path d="M 37.703125 60.980469 L 13.296875 60.980469 C 12.347656 60.980469 11.664062 60.074219 11.921875 59.15625 L 18.621094 35.160156 C 18.792969 34.539062 19.355469 34.109375 19.996094 34.109375 L 44.402344 34.109375 C 45.347656 34.109375 46.035156 35.019531 45.777344 35.933594 L 39.078125 59.933594 C 38.90625 60.554688 38.34375 60.980469 37.703125 60.980469 Z M 21.851562 79.097656 L 25.300781 66.738281 C 25.554688 65.824219 24.871094 64.914062 23.925781 64.914062 L 11.378906 64.914062 C 10.738281 64.914062 10.175781 65.34375 10.003906 65.964844 L 6.550781 78.320312 C 6.296875 79.234375 6.980469 80.144531 7.929688 80.144531 L 20.472656 80.144531 C 21.113281 80.144531 21.675781 79.714844 21.851562 79.097656 Z M 28.199219 65.964844 L 21.5 89.960938 C 21.242188 90.878906 21.925781 91.785156 22.875 91.785156 L 47.28125 91.785156 C 47.921875 91.785156 48.484375 91.359375 48.65625 90.738281 L 55.355469 66.738281 C 55.613281 65.824219 54.925781 64.914062 53.980469 64.914062 L 29.574219 64.914062 C 28.933594 64.914062 28.371094 65.34375 28.199219 65.964844 Z M 45.425781 46.800781 L 41.976562 59.15625 C 41.722656 60.074219 42.40625 60.980469 43.351562 60.980469 L 55.898438 60.980469 C 56.539062 60.980469 57.101562 60.554688 57.273438 59.933594 L 60.722656 47.578125 C 60.980469 46.660156 60.296875 45.753906 59.347656 45.753906 L 46.800781 45.753906 C 46.164062 45.753906 45.601562 46.179688 45.425781 46.800781 Z M 45.425781 46.800781 " clip-rule="nonzero"/></clipPath><linearGradient x1="114.296457" gradientTransform="matrix(0.114777, 0, 0, 0.115351, 6.4985, 34.110835)" y1="-47.633934" x2="358.610872" gradientUnits="userSpaceOnUse" y2="547.607272" id="43157d8ad6"><stop stop-opacity="1" stop-color="rgb(0%, 98.799133%, 65.899658%)" offset="0"/><stop stop-opacity="1" stop-color="rgb(0%, 98.799133%, 65.899658%)" offset="0.0625"/><stop stop-opacity="1" stop-color="rgb(0.0213623%, 98.773193%, 65.965271%)" offset="0.09375"/><stop stop-opacity="1" stop-color="rgb(0.100708%, 98.677063%, 66.210938%)" offset="0.101563"/><stop stop-opacity="1" stop-color="rgb(0.216675%, 98.536682%, 66.571045%)" offset="0.109375"/><stop stop-opacity="1" stop-color="rgb(0.332642%, 98.396301%, 66.929626%)" offset="0.117188"/><stop stop-opacity="1" stop-color="rgb(0.448608%, 98.25592%, 67.289734%)" offset="0.125"/><stop stop-opacity="1" stop-color="rgb(0.564575%, 98.117065%, 67.649841%)" offset="0.132813"/><stop stop-opacity="1" stop-color="rgb(0.679016%, 97.976685%, 68.008423%)" offset="0.140625"/><stop stop-opacity="1" stop-color="rgb(0.794983%, 97.836304%, 68.36853%)" offset="0.148438"/><stop stop-opacity="1" stop-color="rgb(0.91095%, 97.695923%, 68.727112%)" offset="0.15625"/><stop stop-opacity="1" stop-color="rgb(1.026917%, 97.555542%, 69.087219%)" offset="0.164063"/><stop stop-opacity="1" stop-color="rgb(1.142883%, 97.415161%, 69.445801%)" offset="0.171875"/><stop stop-opacity="1" stop-color="rgb(1.25885%, 97.27478%, 69.805908%)" offset="0.179688"/><stop stop-opacity="1" stop-color="rgb(1.374817%, 97.135925%, 70.16449%)" offset="0.1875"/><stop stop-opacity="1" stop-color="rgb(1.490784%, 96.995544%, 70.524597%)" offset="0.195313"/><stop stop-opacity="1" stop-color="rgb(1.60675%, 96.855164%, 70.883179%)" offset="0.203125"/><stop stop-opacity="1" stop-color="rgb(1.722717%, 96.714783%, 71.243286%)" offset="0.210938"/><stop stop-opacity="1" stop-color="rgb(1.838684%, 96.574402%, 71.603394%)" offset="0.21875"/><stop stop-opacity="1" stop-color="rgb(1.954651%, 96.434021%, 71.961975%)" offset="0.226563"/><stop stop-opacity="1" stop-color="rgb(2.070618%, 96.29364%, 72.322083%)" offset="0.234375"/><stop stop-opacity="1" stop-color="rgb(2.186584%, 96.153259%, 72.680664%)" offset="0.242188"/><stop stop-opacity="1" stop-color="rgb(2.302551%, 96.014404%, 73.040771%)" offset="0.25"/><stop stop-opacity="1" stop-color="rgb(2.418518%, 95.874023%, 73.399353%)" offset="0.257813"/><stop stop-opacity="1" stop-color="rgb(2.534485%, 95.733643%, 73.75946%)" offset="0.265625"/><stop stop-opacity="1" stop-color="rgb(2.650452%, 95.593262%, 74.118042%)" offset="0.273438"/><stop stop-opacity="1" stop-color="rgb(2.766418%, 95.452881%, 74.478149%)" offset="0.281113"/><stop stop-opacity="1" stop-color="rgb(2.824402%, 95.38269%, 74.658203%)" offset="0.28125"/><stop stop-opacity="1" stop-color="rgb(2.882385%, 95.3125%, 74.836731%)" offset="0.289062"/><stop stop-opacity="1" stop-color="rgb(2.998352%, 95.172119%, 75.196838%)" offset="0.296875"/><stop stop-opacity="1" stop-color="rgb(3.114319%, 95.031738%, 75.556946%)" offset="0.304688"/><stop stop-opacity="1" stop-color="rgb(3.230286%, 94.892883%, 75.915527%)" offset="0.3125"/><stop stop-opacity="1" stop-color="rgb(3.346252%, 94.752502%, 76.275635%)" offset="0.320313"/><stop stop-opacity="1" stop-color="rgb(3.462219%, 94.612122%, 76.634216%)" offset="0.328125"/><stop stop-opacity="1" stop-color="rgb(3.578186%, 94.471741%, 76.994324%)" offset="0.335938"/><stop stop-opacity="1" stop-color="rgb(3.694153%, 94.33136%, 77.352905%)" offset="0.34375"/><stop stop-opacity="1" stop-color="rgb(3.81012%, 94.190979%, 77.713013%)" offset="0.351563"/><stop stop-opacity="1" stop-color="rgb(3.926086%, 94.050598%, 78.071594%)" offset="0.359375"/><stop stop-opacity="1" stop-color="rgb(4.042053%, 93.911743%, 78.431702%)" offset="0.367188"/><stop stop-opacity="1" stop-color="rgb(4.15802%, 93.771362%, 78.790283%)" offset="0.375"/><stop stop-opacity="1" stop-color="rgb(4.273987%, 93.630981%, 79.150391%)" offset="0.382813"/><stop stop-opacity="1" stop-color="rgb(4.389954%, 93.490601%, 79.510498%)" offset="0.390625"/><stop stop-opacity="1" stop-color="rgb(4.50592%, 93.35022%, 79.86908%)" offset="0.398438"/><stop stop-opacity="1" stop-color="rgb(4.621887%, 93.209839%, 80.229187%)" offset="0.40625"/><stop stop-opacity="1" stop-color="rgb(4.737854%, 93.069458%, 80.587769%)" offset="0.414063"/><stop stop-opacity="1" stop-color="rgb(4.853821%, 92.929077%, 80.947876%)" offset="0.421875"/><stop stop-opacity="1" stop-color="rgb(4.969788%, 92.790222%, 81.306458%)" offset="0.429688"/><stop stop-opacity="1" stop-color="rgb(5.085754%, 92.649841%, 81.666565%)" offset="0.4375"/><stop stop-opacity="1" stop-color="rgb(5.201721%, 92.50946%, 82.025146%)" offset="0.445313"/><stop stop-opacity="1" stop-color="rgb(5.317688%, 92.36908%, 82.385254%)" offset="0.453125"/><stop stop-opacity="1" stop-color="rgb(5.433655%, 92.228699%, 82.743835%)" offset="0.460938"/><stop stop-opacity="1" stop-color="rgb(5.549622%, 92.088318%, 83.103943%)" offset="0.46875"/><stop stop-opacity="1" stop-color="rgb(5.665588%, 91.947937%, 83.46405%)" offset="0.476563"/><stop stop-opacity="1" stop-color="rgb(5.781555%, 91.807556%, 83.822632%)" offset="0.484375"/><stop stop-opacity="1" stop-color="rgb(5.897522%, 91.668701%, 84.182739%)" offset="0.492188"/><stop stop-opacity="1" stop-color="rgb(6.013489%, 91.52832%, 84.541321%)" offset="0.5"/><stop stop-opacity="1" stop-color="rgb(6.129456%, 91.387939%, 84.901428%)" offset="0.507813"/><stop stop-opacity="1" stop-color="rgb(6.245422%, 91.247559%, 85.26001%)" offset="0.515625"/><stop stop-opacity="1" stop-color="rgb(6.361389%, 91.107178%, 85.620117%)" offset="0.523438"/><stop stop-opacity="1" stop-color="rgb(6.477356%, 90.966797%, 85.978699%)" offset="0.53125"/><stop stop-opacity="1" stop-color="rgb(6.593323%, 90.826416%, 86.338806%)" offset="0.539063"/><stop stop-opacity="1" stop-color="rgb(6.70929%, 90.687561%, 86.697388%)" offset="0.546875"/><stop stop-opacity="1" stop-color="rgb(6.825256%, 90.54718%, 87.057495%)" offset="0.554688"/><stop stop-opacity="1" stop-color="rgb(6.941223%, 90.406799%, 87.417603%)" offset="0.5625"/><stop stop-opacity="1" stop-color="rgb(7.05719%, 90.266418%, 87.776184%)" offset="0.570313"/><stop stop-opacity="1" stop-color="rgb(7.171631%, 90.126038%, 88.136292%)" offset="0.578125"/><stop stop-opacity="1" stop-color="rgb(7.287598%, 89.985657%, 88.494873%)" offset="0.585938"/><stop stop-opacity="1" stop-color="rgb(7.403564%, 89.845276%, 88.85498%)" offset="0.59375"/><stop stop-opacity="1" stop-color="rgb(7.519531%, 89.704895%, 89.213562%)" offset="0.601563"/><stop stop-opacity="1" stop-color="rgb(7.635498%, 89.56604%, 89.573669%)" offset="0.609375"/><stop stop-opacity="1" stop-color="rgb(7.751465%, 89.425659%, 89.932251%)" offset="0.617188"/><stop stop-opacity="1" stop-color="rgb(7.867432%, 89.285278%, 90.292358%)" offset="0.625"/><stop stop-opacity="1" stop-color="rgb(7.983398%, 89.144897%, 90.65094%)" offset="0.632812"/><stop stop-opacity="1" stop-color="rgb(8.099365%, 89.004517%, 91.011047%)" offset="0.640625"/><stop stop-opacity="1" stop-color="rgb(8.215332%, 88.864136%, 91.371155%)" offset="0.648438"/><stop stop-opacity="1" stop-color="rgb(8.331299%, 88.723755%, 91.729736%)" offset="0.65625"/><stop stop-opacity="1" stop-color="rgb(8.447266%, 88.583374%, 92.089844%)" offset="0.664062"/><stop stop-opacity="1" stop-color="rgb(8.563232%, 88.444519%, 92.448425%)" offset="0.671875"/><stop stop-opacity="1" stop-color="rgb(8.679199%, 88.304138%, 92.808533%)" offset="0.679688"/><stop stop-opacity="1" stop-color="rgb(8.795166%, 88.163757%, 93.167114%)" offset="0.6875"/><stop stop-opacity="1" stop-color="rgb(8.911133%, 88.023376%, 93.527222%)" offset="0.695312"/><stop stop-opacity="1" stop-color="rgb(9.0271%, 87.882996%, 93.885803%)" offset="0.703125"/><stop stop-opacity="1" stop-color="rgb(9.143066%, 87.742615%, 94.245911%)" offset="0.710938"/><stop stop-opacity="1" stop-color="rgb(9.259033%, 87.602234%, 94.604492%)" offset="0.71875"/><stop stop-opacity="1" stop-color="rgb(9.375%, 87.463379%, 94.9646%)" offset="0.718887"/><stop stop-opacity="1" stop-color="rgb(9.432983%, 87.393188%, 95.144653%)" offset="0.726563"/><stop stop-opacity="1" stop-color="rgb(9.490967%, 87.322998%, 95.324707%)" offset="0.734375"/><stop stop-opacity="1" stop-color="rgb(9.606934%, 87.182617%, 95.683289%)" offset="0.742188"/><stop stop-opacity="1" stop-color="rgb(9.7229%, 87.042236%, 96.043396%)" offset="0.75"/><stop stop-opacity="1" stop-color="rgb(9.838867%, 86.901855%, 96.401978%)" offset="0.757813"/><stop stop-opacity="1" stop-color="rgb(9.954834%, 86.761475%, 96.762085%)" offset="0.765625"/><stop stop-opacity="1" stop-color="rgb(10.070801%, 86.621094%, 97.120667%)" offset="0.773438"/><stop stop-opacity="1" stop-color="rgb(10.186768%, 86.480713%, 97.480774%)" offset="0.78125"/><stop stop-opacity="1" stop-color="rgb(10.302734%, 86.341858%, 97.839355%)" offset="0.789062"/><stop stop-opacity="1" stop-color="rgb(10.418701%, 86.201477%, 98.199463%)" offset="0.796875"/><stop stop-opacity="1" stop-color="rgb(10.534668%, 86.061096%, 98.558044%)" offset="0.804688"/><stop stop-opacity="1" stop-color="rgb(10.650635%, 85.920715%, 98.918152%)" offset="0.8125"/><stop stop-opacity="1" stop-color="rgb(10.766602%, 85.780334%, 99.278259%)" offset="0.820312"/><stop stop-opacity="1" stop-color="rgb(10.882568%, 85.639954%, 99.636841%)" offset="0.828125"/><stop stop-opacity="1" stop-color="rgb(10.969543%, 85.534668%, 99.908447%)" offset="0.84375"/><stop stop-opacity="1" stop-color="rgb(10.998535%, 85.499573%, 100%)" offset="0.875"/><stop stop-opacity="1" stop-color="rgb(10.998535%, 85.499573%, 100%)" offset="1"/></linearGradient></defs><g clip-path="url(#0f6b90764d)"><path fill="#ffffff" d="M 0 0.0820312 L 388 0.0820312 L 388 125.917969 L 0 125.917969 Z M 0 0.0820312 " fill-opacity="1" fill-rule="nonzero"/><path fill="#292929" d="M 0 0.0820312 L 388 0.0820312 L 388 125.917969 L 0 125.917969 Z M 0 0.0820312 " fill-opacity="1" fill-rule="nonzero"/></g><g clip-path="url(#7343f1b7bb)"><g clip-path="url(#437f981765)"><path fill="#00faa8" d="M 368.523438 68.949219 L 381.707031 68.949219 L 381.707031 82.132812 L 368.523438 82.132812 Z M 368.523438 68.949219 " fill-opacity="1" fill-rule="nonzero"/></g></g><g clip-path="url(#22c636ba48)"><g clip-path="url(#122463efd2)"><path fill="url(#43157d8ad6)" d="M 6.296875 34.109375 L 6.296875 91.785156 L 60.972656 91.785156 L 60.972656 34.109375 Z M 6.296875 34.109375 " fill-rule="nonzero"/></g></g><g fill="#ffffff" fill-opacity="1"><g transform="translate(68.426482, 81.226862)"><g><path d="M 2.609375 0 L 2.609375 -26.78125 L 20.09375 -26.78125 L 20.09375 -22.84375 L 7.5 -22.84375 L 7.5 -15.5 L 18.9375 -15.5 L 18.9375 -11.671875 L 7.5 -11.671875 L 7.5 -3.9375 L 20.09375 -3.9375 L 20.09375 0 Z M 2.609375 0 "/></g></g></g><g fill="#ffffff" fill-opacity="1"><g transform="translate(96.472689, 81.226862)"><g><path d="M 10.375 0 L 0.578125 -26.78125 L 5.8125 -26.78125 L 13.390625 -5.015625 L 21.015625 -26.78125 L 26.171875 -26.78125 L 16.375 0 Z M 10.375 0 "/></g></g></g><g fill="#ffffff" fill-opacity="1"><g transform="translate(129.14843, 81.226862)"><g><path d="M 2.609375 0 L 2.609375 -26.78125 L 20.09375 -26.78125 L 20.09375 -22.84375 L 7.5 -22.84375 L 7.5 -15.5 L 18.9375 -15.5 L 18.9375 -11.671875 L 7.5 -11.671875 L 7.5 -3.9375 L 20.09375 -3.9375 L 20.09375 0 Z M 2.609375 0 "/></g></g></g><g fill="#ffffff" fill-opacity="1"><g transform="translate(157.19464, 81.226862)"><g><path d="M 2.609375 0 L 2.609375 -26.78125 L 7.5 -26.78125 L 20.09375 -7.921875 L 20.09375 -26.78125 L 24.984375 -26.78125 L 24.984375 0 L 20.09375 0 L 7.5 -18.828125 L 7.5 0 Z M 2.609375 0 "/></g></g></g><g fill="#ffffff" fill-opacity="1"><g transform="translate(190.712103, 81.226862)"><g><path d="M 8.84375 0 L 8.84375 -22.84375 L 1.03125 -22.84375 L 1.03125 -26.78125 L 21.578125 -26.78125 L 21.578125 -22.84375 L 13.734375 -22.84375 L 13.734375 0 Z M 8.84375 0 "/></g></g></g><g fill="#ffffff" fill-opacity="1"><g transform="translate(219.261794, 81.226862)"><g><path d="M 11.359375 0.453125 C 9.398438 0.453125 7.691406 0.0976562 6.234375 -0.609375 C 4.785156 -1.328125 3.664062 -2.320312 2.875 -3.59375 C 2.082031 -4.875 1.6875 -6.351562 1.6875 -8.03125 L 5.046875 -8.03125 C 5.046875 -6.988281 5.285156 -6.023438 5.765625 -5.140625 C 6.253906 -4.265625 6.960938 -3.5625 7.890625 -3.03125 C 8.828125 -2.507812 9.984375 -2.25 11.359375 -2.25 C 13.171875 -2.25 14.570312 -2.679688 15.5625 -3.546875 C 16.5625 -4.421875 17.0625 -5.507812 17.0625 -6.8125 C 17.0625 -7.882812 16.832031 -8.742188 16.375 -9.390625 C 15.914062 -10.046875 15.296875 -10.578125 14.515625 -10.984375 C 13.742188 -11.390625 12.851562 -11.742188 11.84375 -12.046875 C 10.832031 -12.359375 9.78125 -12.707031 8.6875 -13.09375 C 6.625 -13.800781 5.09375 -14.679688 4.09375 -15.734375 C 3.101562 -16.796875 2.609375 -18.179688 2.609375 -19.890625 C 2.578125 -21.328125 2.90625 -22.597656 3.59375 -23.703125 C 4.28125 -24.816406 5.253906 -25.6875 6.515625 -26.3125 C 7.785156 -26.9375 9.285156 -27.25 11.015625 -27.25 C 12.722656 -27.25 14.207031 -26.925781 15.46875 -26.28125 C 16.738281 -25.644531 17.722656 -24.765625 18.421875 -23.640625 C 19.128906 -22.523438 19.492188 -21.253906 19.515625 -19.828125 L 16.140625 -19.828125 C 16.140625 -20.566406 15.945312 -21.296875 15.5625 -22.015625 C 15.1875 -22.742188 14.609375 -23.335938 13.828125 -23.796875 C 13.054688 -24.253906 12.082031 -24.484375 10.90625 -24.484375 C 9.445312 -24.515625 8.253906 -24.144531 7.328125 -23.375 C 6.398438 -22.613281 5.9375 -21.554688 5.9375 -20.203125 C 5.9375 -19.054688 6.257812 -18.175781 6.90625 -17.5625 C 7.550781 -16.945312 8.460938 -16.441406 9.640625 -16.046875 C 10.816406 -15.648438 12.171875 -15.195312 13.703125 -14.6875 C 14.972656 -14.226562 16.117188 -13.691406 17.140625 -13.078125 C 18.160156 -12.472656 18.957031 -11.6875 19.53125 -10.71875 C 20.101562 -9.75 20.390625 -8.507812 20.390625 -7 C 20.390625 -5.726562 20.054688 -4.523438 19.390625 -3.390625 C 18.734375 -2.253906 17.734375 -1.328125 16.390625 -0.609375 C 15.054688 0.0976562 13.378906 0.453125 11.359375 0.453125 Z M 11.359375 0.453125 "/></g></g></g><g fill="#ffffff" fill-opacity="1"><g transform="translate(247.308001, 81.226862)"><g><path d="M 14.578125 0.453125 C 11.953125 0.453125 9.6875 -0.125 7.78125 -1.28125 C 5.882812 -2.4375 4.410156 -4.054688 3.359375 -6.140625 C 2.316406 -8.222656 1.796875 -10.640625 1.796875 -13.390625 C 1.796875 -16.117188 2.316406 -18.519531 3.359375 -20.59375 C 4.410156 -22.675781 5.882812 -24.304688 7.78125 -25.484375 C 9.6875 -26.660156 11.953125 -27.25 14.578125 -27.25 C 17.640625 -27.25 20.132812 -26.515625 22.0625 -25.046875 C 23.988281 -23.578125 25.21875 -21.53125 25.75 -18.90625 L 22.1875 -18.90625 C 21.78125 -20.5625 20.945312 -21.890625 19.6875 -22.890625 C 18.425781 -23.898438 16.722656 -24.40625 14.578125 -24.40625 C 12.660156 -24.40625 10.988281 -23.960938 9.5625 -23.078125 C 8.132812 -22.203125 7.03125 -20.941406 6.25 -19.296875 C 5.476562 -17.660156 5.09375 -15.691406 5.09375 -13.390625 C 5.09375 -11.097656 5.476562 -9.128906 6.25 -7.484375 C 7.03125 -5.835938 8.132812 -4.570312 9.5625 -3.6875 C 10.988281 -2.8125 12.660156 -2.375 14.578125 -2.375 C 16.722656 -2.375 18.425781 -2.863281 19.6875 -3.84375 C 20.945312 -4.820312 21.78125 -6.128906 22.1875 -7.765625 L 25.75 -7.765625 C 25.21875 -5.191406 23.988281 -3.175781 22.0625 -1.71875 C 20.132812 -0.269531 17.640625 0.453125 14.578125 0.453125 Z M 14.578125 0.453125 "/></g></g></g><g fill="#ffffff" fill-opacity="1"><g transform="translate(280.787205, 81.226862)"><g><path d="M 1.140625 0 L 11.015625 -26.78125 L 14.421875 -26.78125 L 24.265625 0 L 20.859375 0 L 18.40625 -6.890625 L 7 -6.890625 L 4.515625 0 Z M 7.953125 -9.484375 L 17.453125 -9.484375 L 12.703125 -22.734375 Z M 7.953125 -9.484375 "/></g></g></g><g fill="#ffffff" fill-opacity="1"><g transform="translate(312.123818, 81.226862)"><g><path d="M 2.828125 0 L 2.828125 -26.78125 L 11.625 -26.78125 C 13.71875 -26.78125 15.441406 -26.4375 16.796875 -25.75 C 18.148438 -25.0625 19.148438 -24.128906 19.796875 -22.953125 C 20.453125 -21.785156 20.78125 -20.460938 20.78125 -18.984375 C 20.78125 -17.523438 20.457031 -16.207031 19.8125 -15.03125 C 19.175781 -13.863281 18.179688 -12.925781 16.828125 -12.21875 C 15.484375 -11.519531 13.75 -11.171875 11.625 -11.171875 L 6.046875 -11.171875 L 6.046875 0 Z M 6.046875 -13.890625 L 11.5625 -13.890625 C 13.695312 -13.890625 15.21875 -14.34375 16.125 -15.25 C 17.03125 -16.15625 17.484375 -17.398438 17.484375 -18.984375 C 17.484375 -20.585938 17.03125 -21.84375 16.125 -22.75 C 15.21875 -23.65625 13.695312 -24.109375 11.5625 -24.109375 L 6.046875 -24.109375 Z M 6.046875 -13.890625 "/></g></g></g><g fill="#ffffff" fill-opacity="1"><g transform="translate(340.208283, 81.226862)"><g><path d="M 2.828125 0 L 2.828125 -26.78125 L 19.40625 -26.78125 L 19.40625 -24.140625 L 6.046875 -24.140625 L 6.046875 -14.8125 L 18.25 -14.8125 L 18.25 -12.203125 L 6.046875 -12.203125 L 6.046875 -2.640625 L 19.40625 -2.640625 L 19.40625 0 Z M 2.828125 0 "/></g></g></g></svg>