<svg xmlns="http://www.w3.org/2000/svg" xmlns:xlink="http://www.w3.org/1999/xlink" width="500" zoomAndPan="magnify" viewBox="0 0 375 374.999991" height="500" preserveAspectRatio="xMidYMid meet" version="1.0"><defs><clipPath id="17a519db88"><path d="M 62 84.488281 L 313.480469 84.488281 L 313.480469 128 L 62 128 Z M 62 84.488281 " clip-rule="nonzero"/></clipPath><clipPath id="92eff5299a"><path d="M 61.480469 155 L 313 155 L 313 199 L 61.480469 199 Z M 61.480469 155 " clip-rule="nonzero"/></clipPath><clipPath id="a4a5788f69"><path d="M 61.480469 229 L 313 229 L 313 271.988281 L 61.480469 271.988281 Z M 61.480469 229 " clip-rule="nonzero"/></clipPath></defs><rect x="-37.5" width="450" fill="#ffffff" y="-37.499999" height="449.999989" fill-opacity="1"/><rect x="-37.5" width="450" fill="#ffffff" y="-37.499999" height="449.999989" fill-opacity="1"/><g clip-path="url(#17a519db88)"><path fill="#231f20" d="M 291.992188 127.414062 L 83.605469 127.414062 C 71.746094 127.414062 62.152344 117.8125 62.152344 105.949219 C 62.152344 94.085938 71.746094 84.488281 83.605469 84.488281 L 291.992188 84.488281 C 303.851562 84.488281 313.449219 94.085938 313.449219 105.949219 C 313.449219 117.8125 303.851562 127.414062 291.992188 127.414062 Z M 291.992188 127.414062 " fill-opacity="1" fill-rule="nonzero"/></g><g clip-path="url(#92eff5299a)"><path fill="#231f20" d="M 291.355469 198.59375 L 82.964844 198.59375 C 71.105469 198.59375 61.511719 188.992188 61.511719 177.128906 C 61.511719 165.265625 71.105469 155.667969 82.964844 155.667969 L 291.355469 155.667969 C 303.210938 155.667969 312.808594 165.265625 312.808594 177.128906 C 312.808594 188.992188 303.210938 198.59375 291.355469 198.59375 Z M 291.355469 198.59375 " fill-opacity="1" fill-rule="nonzero"/></g><g clip-path="url(#a4a5788f69)"><path fill="#231f20" d="M 291.355469 271.988281 L 82.964844 271.988281 C 71.105469 271.988281 61.511719 262.390625 61.511719 250.527344 C 61.511719 238.664062 71.105469 229.0625 82.964844 229.0625 L 291.355469 229.0625 C 303.210938 229.0625 312.808594 238.664062 312.808594 250.527344 C 312.808594 262.390625 303.210938 271.988281 291.355469 271.988281 Z M 291.355469 271.988281 " fill-opacity="1" fill-rule="nonzero"/></g></svg>